<svg width="100" height="39" viewBox="0 0 100 39" fill="none" xmlns="http://www.w3.org/2000/svg">
<mask id="mask0_2_66" style="mask-type:luminance" maskUnits="userSpaceOnUse" x="0" y="0" width="100" height="39">
<path fill-rule="evenodd" clip-rule="evenodd" d="M0.0682068 0.690399H99.8182V38.9404H0.0682068V0.690399Z" fill="white"/>
</mask>
<g mask="url(#mask0_2_66)">
<path d="M26.3525 12.7824C20.7867 15.1989 15.5377 18.17 10.6057 21.7155C10.0115 22.1315 10.368 23.0426 11.1009 22.8842C13.2797 22.4484 15.4585 22.0126 17.6373 21.5769C19.42 21.2203 21.7969 20.3092 23.6785 20.6855C22.807 22.6069 20.1925 23.8151 18.5881 24.9441C16.6073 26.3306 14.6464 27.6973 12.6657 29.0838C8.70421 31.8371 4.72294 34.5507 0.741665 37.2643C0.0682164 37.7198 0.702051 38.8489 1.39531 38.3735C6.08964 35.1845 10.7642 31.9757 15.4189 28.7273C17.6373 27.1823 19.8359 25.6572 22.0345 24.0924C23.4211 23.102 24.7283 22.1513 25.1443 20.4281C25.2235 20.0517 25.0254 19.7744 24.6887 19.6358C22.8466 18.9029 20.7867 19.6358 18.9248 20.0121C17.2412 20.3488 15.5575 20.6855 13.8739 21.0223C18.0335 18.2691 22.3911 15.8922 26.9864 13.8916C27.7589 13.5549 27.1052 12.4457 26.3525 12.7824ZM26.6496 17.4173L25.2037 21.0025C24.8868 21.7749 26.1347 22.1117 26.4516 21.3392C26.9269 20.1507 27.4221 18.9425 27.8975 17.7541C28.1946 16.9816 26.9468 16.6449 26.6496 17.4173ZM58.2819 9.27653C57.0143 9.63306 55.7664 10.0292 54.5384 10.4254C54.6374 10.1679 54.7562 9.91036 54.8553 9.65287C55.4099 8.34558 55.9447 7.05811 56.5389 5.77063C56.8162 5.1566 57.5887 2.81934 58.2621 2.18551C58.7771 2.32416 59.411 1.80917 59.0148 1.27437C58.9752 1.21495 58.9158 1.15553 58.8762 1.0763C58.7177 0.838609 58.4404 0.699958 58.1433 0.779187C56.5191 1.25456 55.8853 4.04739 55.2712 5.43391C54.4591 7.25618 53.6866 9.09826 52.934 10.9602C50.5967 11.7723 48.2991 12.6636 46.0212 13.6341C45.2685 13.9511 45.9222 15.0603 46.6749 14.7433C48.5169 13.9511 50.3788 13.238 52.2803 12.5645C52.2209 12.7032 52.1615 12.822 52.1219 12.9607C49.9629 18.0908 47.6058 23.1417 44.2782 27.6379C43.783 28.3114 44.8922 28.9452 45.3874 28.2916C48.2991 24.3697 50.4581 20.0319 52.3992 15.5554C52.9142 14.367 53.4093 13.1984 53.9045 12.0099C55.4693 11.4751 57.0539 10.98 58.6583 10.5046C59.4308 10.2867 59.094 9.03884 58.2819 9.27653Z" fill="#060074"/>
<path d="M94.0341 5.77062C90.5877 6.04792 87.1808 6.5233 83.8136 7.25617C82.0903 7.63251 80.3869 8.06827 78.7033 8.56345C77.9308 8.80114 77.1583 9.03883 76.3858 9.29633C75.9104 9.45478 75.4549 9.61324 74.9795 9.7717C74.1476 10.1877 73.494 9.89055 73.0384 8.90018C73.1968 8.72191 73.3553 8.52384 73.494 8.34557C73.8109 7.96923 73.692 7.43444 73.2167 7.27598C71.949 6.82041 70.5427 7.75135 70.6615 9.19729C70.6615 9.29633 70.6813 9.39536 70.7011 9.4944C70.0871 10.0094 69.4137 10.4055 68.6015 10.5442C67.2547 10.7621 66.9377 10.0886 65.8879 9.47459C65.6899 9.35575 65.5116 9.17748 65.2739 9.13787C64.7193 9.03883 64.1845 9.39536 63.7884 9.75189C63.4714 10.0292 63.214 10.4055 62.9763 10.7423C62.7782 11.0592 62.5603 11.3761 62.3622 11.7128C61.9463 12.7032 61.253 12.822 60.2825 12.0694C60.6984 11.4553 59.7873 10.8017 59.2723 11.2969C58.48 12.0297 57.6481 12.6438 56.737 13.1389C56.7568 12.8418 56.7766 12.5447 56.7964 12.2476C56.8558 11.4157 55.5683 11.4157 55.5089 12.2476C55.4693 12.9013 55.4297 13.5549 55.3702 14.2085C55.3306 14.7433 55.9248 14.9414 56.3408 14.7631C57.3114 14.3274 58.2027 13.7926 59.0148 13.1588C59.2129 13.5945 59.5892 13.9709 60.124 14.1491C61.7284 14.7235 62.798 13.1984 63.6299 12.109C63.927 11.7128 64.5807 10.6036 65.2343 10.7026C65.3333 10.7225 66.0266 11.3959 66.2049 11.4751C66.9575 11.8713 67.8687 11.9703 68.7006 11.8515C69.7306 11.7128 70.6021 11.2176 71.3746 10.5838C72.0678 11.178 73.1374 11.4157 74.0089 11.3167C75.4747 11.1582 76.881 10.4848 78.2675 10.049C79.8125 9.57363 81.3971 9.13787 82.9817 8.78134C86.6262 7.92962 90.3104 7.37502 94.0539 7.07791C94.8661 6.99868 94.8661 5.7112 94.0341 5.77062ZM99.3227 5.63197C99.085 5.39428 98.6493 5.39428 98.4116 5.63197C98.3125 5.73101 98.1937 5.84985 98.0946 5.94889C97.857 6.18658 97.857 6.62234 98.0946 6.86002C98.3323 7.09771 98.7681 7.09771 99.0058 6.86002L99.3227 6.54311C99.5604 6.30542 99.5604 5.86966 99.3227 5.63197ZM47.0116 15.0603C46.3975 15.3574 45.7835 15.6347 45.1695 15.9318C45.0903 15.7139 45.0308 15.496 44.9516 15.2781C45.4072 15.1197 45.6449 14.4066 45.0903 14.1095C44.1989 13.6143 42.753 14.9018 42.1192 15.5554C42.139 15.4762 42.1588 15.397 42.1588 15.3178C42.238 14.7631 41.7428 14.3274 41.208 14.5849C40.3365 15.0008 39.465 15.4564 38.6331 15.9516C38.6529 15.912 38.6727 15.8724 38.6727 15.8327C38.9104 15.2187 38.019 14.7631 37.6031 15.1989C36.2958 16.6052 34.8499 17.8927 33.4237 19.1802C33.6218 18.4275 33.8001 17.6946 34.018 16.9618C34.2556 16.1695 33.0078 15.8327 32.7701 16.625C32.7107 16.8231 32.6711 17.0014 32.6116 17.1995C32.5522 17.1796 32.4928 17.1598 32.4532 17.1598C32.5126 16.8033 32.2947 16.4072 31.8392 16.4072C30.928 16.4072 30.0367 16.7439 29.4227 17.4371C28.8879 18.0314 28.4323 19.101 28.6898 19.8932C29.1652 21.4184 31.0469 19.9923 32.1561 18.9623C31.9976 19.5763 31.859 20.1904 31.7005 20.7846C31.0469 21.4184 30.413 22.0721 29.8188 22.7653C28.2342 24.6074 26.0752 27.1823 27.1646 29.7177C27.3429 30.1336 27.8975 30.0742 28.1748 29.8563C30.8488 27.7171 31.9778 24.6668 32.8295 21.4976C33.9982 20.3884 35.2064 19.299 36.3948 18.2096C36.375 18.2492 36.375 18.269 36.3552 18.3087C36.0581 19.0811 37.306 19.4179 37.6031 18.6454C37.7021 18.3879 37.8012 18.1502 37.9002 17.8927C38.7915 17.3381 39.6829 16.8231 40.6138 16.3477C40.5148 16.6646 40.3959 16.9816 40.2375 17.2985C39.8809 18.0512 40.9901 18.7048 41.3467 17.9521C41.4457 17.7541 41.5447 17.5362 41.624 17.3381C41.7428 17.5164 41.9409 17.655 42.1786 17.655C42.6738 17.655 43.5453 16.4864 43.9414 16.2685C44.0207 16.526 44.0999 16.7637 44.1989 17.0212C44.3376 17.4371 44.7535 17.5956 45.1497 17.3975C46.0014 17.0014 46.8531 16.5854 47.7048 16.1893C48.4179 15.8129 47.7642 14.7037 47.0116 15.0603ZM30.7696 18.4473C30.6507 18.5463 30.2546 18.8633 29.9575 19.0613C30.0565 18.7642 30.2546 18.4077 30.413 18.2492C30.7299 17.8927 31.1657 17.7342 31.6213 17.6748C31.3242 17.9719 31.0667 18.2294 30.7696 18.4473ZM28.0956 28.1925C28.0956 26.6079 29.5415 24.7857 30.928 23.3397C30.314 25.1422 29.4623 26.8258 28.0956 28.1925Z" fill="#060074"/>
</g>
</svg>
