<svg width="596" height="843" viewBox="0 0 596 843" fill="none" xmlns="http://www.w3.org/2000/svg">
<mask id="mask0_2_58" style="mask-type:luminance" maskUnits="userSpaceOnUse" x="0" y="0" width="596" height="843">
<path fill-rule="evenodd" clip-rule="evenodd" d="M0 3.05176e-05H595.5V842.25H0V3.05176e-05Z" fill="white"/>
</mask>
<g mask="url(#mask0_2_58)">
<path d="M425.471 725.58C425.678 725.58 425.855 725.653 426.001 725.799C426.148 725.946 426.221 726.123 426.221 726.33C426.221 726.537 426.148 726.714 426.001 726.86C425.855 727.006 425.678 727.08 425.471 727.08C425.264 727.08 425.087 727.006 424.941 726.86C424.794 726.714 424.721 726.537 424.721 726.33C424.721 726.123 424.794 725.946 424.941 725.799C425.087 725.653 425.264 725.58 425.471 725.58ZM428.471 725.58C428.678 725.58 428.855 725.653 429.001 725.799C429.148 725.946 429.221 726.123 429.221 726.33C429.221 726.537 429.148 726.714 429.001 726.86C428.855 727.006 428.678 727.08 428.471 727.08C428.264 727.08 428.087 727.006 427.941 726.86C427.794 726.714 427.721 726.537 427.721 726.33C427.721 726.123 427.794 725.946 427.941 725.799C428.087 725.653 428.264 725.58 428.471 725.58ZM431.471 725.58C431.678 725.58 431.855 725.653 432.002 725.799C432.148 725.946 432.221 726.123 432.221 726.33C432.221 726.537 432.148 726.714 432.002 726.86C431.855 727.006 431.678 727.08 431.471 727.08C431.264 727.08 431.087 727.006 430.941 726.86C430.794 726.714 430.721 726.537 430.721 726.33C430.721 726.123 430.794 725.946 430.941 725.799C431.087 725.653 431.264 725.58 431.471 725.58ZM434.471 725.58C434.678 725.58 434.855 725.653 435.002 725.799C435.148 725.946 435.221 726.123 435.221 726.33C435.221 726.537 435.148 726.714 435.002 726.86C434.855 727.006 434.679 727.08 434.471 727.08C434.264 727.08 434.087 727.006 433.941 726.86C433.795 726.714 433.721 726.537 433.721 726.33C433.721 726.123 433.795 725.946 433.941 725.799C434.087 725.653 434.264 725.58 434.471 725.58ZM437.471 725.58C437.679 725.58 437.855 725.653 438.002 725.799C438.148 725.946 438.222 726.123 438.222 726.33C438.222 726.537 438.148 726.714 438.002 726.86C437.855 727.006 437.679 727.08 437.472 727.08C437.264 727.08 437.088 727.006 436.941 726.86C436.795 726.714 436.721 726.537 436.721 726.33C436.721 726.123 436.795 725.946 436.941 725.799C437.088 725.653 437.264 725.58 437.471 725.58ZM440.472 725.58C440.679 725.58 440.856 725.653 441.002 725.799C441.149 725.946 441.222 726.123 441.222 726.33C441.222 726.537 441.149 726.714 441.002 726.86C440.856 727.006 440.679 727.08 440.472 727.08C440.265 727.08 440.088 727.006 439.941 726.86C439.795 726.714 439.722 726.537 439.722 726.33C439.722 726.123 439.795 725.946 439.941 725.799C440.088 725.653 440.264 725.58 440.472 725.58ZM443.472 725.58C443.679 725.58 443.856 725.653 444.002 725.799C444.149 725.946 444.222 726.123 444.222 726.33C444.222 726.537 444.149 726.714 444.002 726.86C443.856 727.006 443.679 727.08 443.472 727.08C443.265 727.08 443.088 727.006 442.941 726.86C442.795 726.714 442.722 726.537 442.722 726.33C442.722 726.123 442.795 725.946 442.941 725.799C443.088 725.653 443.265 725.58 443.472 725.58ZM446.472 725.58C446.679 725.58 446.856 725.653 447.002 725.799C447.149 725.946 447.222 726.123 447.222 726.33C447.222 726.537 447.149 726.714 447.002 726.86C446.856 727.006 446.679 727.08 446.472 727.08C446.265 727.08 446.088 727.006 445.942 726.86C445.795 726.714 445.722 726.537 445.722 726.33C445.722 726.123 445.795 725.946 445.942 725.799C446.088 725.653 446.265 725.58 446.472 725.58ZM449.472 725.58C449.679 725.58 449.856 725.653 450.003 725.799C450.149 725.946 450.222 726.123 450.222 726.33C450.222 726.537 450.149 726.714 450.003 726.86C449.856 727.006 449.679 727.08 449.472 727.08C449.265 727.08 449.088 727.006 448.942 726.86C448.795 726.714 448.722 726.537 448.722 726.33C448.722 726.123 448.795 725.946 448.942 725.799C449.088 725.653 449.265 725.58 449.472 725.58ZM452.472 725.58C452.679 725.58 452.856 725.653 453.003 725.799C453.149 725.946 453.222 726.123 453.222 726.33C453.222 726.537 453.149 726.714 453.003 726.86C452.856 727.006 452.679 727.08 452.472 727.08C452.265 727.08 452.088 727.006 451.942 726.86C451.795 726.714 451.722 726.537 451.722 726.33C451.722 726.123 451.795 725.946 451.942 725.799C452.088 725.653 452.265 725.58 452.472 725.58ZM455.472 725.58C455.679 725.58 455.856 725.653 456.003 725.799C456.149 725.946 456.223 726.123 456.223 726.33C456.223 726.537 456.149 726.714 456.003 726.86C455.856 727.006 455.68 727.08 455.473 727.08C455.265 727.08 455.088 727.006 454.942 726.86C454.796 726.714 454.722 726.537 454.722 726.33C454.722 726.123 454.796 725.946 454.942 725.799C455.088 725.653 455.265 725.58 455.472 725.58ZM458.473 725.58C458.68 725.58 458.857 725.653 459.003 725.799C459.149 725.946 459.223 726.123 459.223 726.33C459.223 726.537 459.149 726.714 459.003 726.86C458.857 727.006 458.68 727.08 458.473 727.08C458.266 727.08 458.089 727.006 457.942 726.86C457.796 726.714 457.723 726.537 457.723 726.33C457.723 726.123 457.796 725.946 457.942 725.799C458.089 725.653 458.265 725.58 458.473 725.58ZM461.473 725.58C461.68 725.58 461.857 725.653 462.003 725.799C462.15 725.946 462.223 726.123 462.223 726.33C462.223 726.537 462.15 726.714 462.003 726.86C461.857 727.006 461.68 727.08 461.473 727.08C461.266 727.08 461.089 727.006 460.942 726.86C460.796 726.714 460.723 726.537 460.723 726.33C460.723 726.123 460.796 725.946 460.942 725.799C461.089 725.653 461.266 725.58 461.473 725.58ZM464.473 725.58C464.68 725.58 464.857 725.653 465.003 725.799C465.15 725.946 465.223 726.123 465.223 726.33C465.223 726.537 465.15 726.714 465.003 726.86C464.857 727.006 464.68 727.08 464.473 727.08C464.266 727.08 464.089 727.006 463.942 726.86C463.796 726.714 463.723 726.537 463.723 726.33C463.723 726.123 463.796 725.946 463.942 725.799C464.089 725.653 464.266 725.58 464.473 725.58ZM467.473 725.58C467.68 725.58 467.857 725.653 468.003 725.799C468.15 725.946 468.223 726.123 468.223 726.33C468.223 726.537 468.15 726.714 468.003 726.86C467.857 727.006 467.68 727.08 467.473 727.08C467.266 727.08 467.089 727.006 466.943 726.86C466.796 726.714 466.723 726.537 466.723 726.33C466.723 726.123 466.796 725.946 466.943 725.799C467.089 725.653 467.266 725.58 467.473 725.58ZM470.473 725.58C470.68 725.58 470.857 725.653 471.004 725.799C471.15 725.946 471.223 726.123 471.223 726.33C471.223 726.537 471.15 726.714 471.004 726.86C470.857 727.006 470.68 727.08 470.473 727.08C470.266 727.08 470.089 727.006 469.943 726.86C469.796 726.714 469.723 726.537 469.723 726.33C469.723 726.123 469.796 725.946 469.943 725.799C470.089 725.653 470.266 725.58 470.473 725.58ZM473.473 725.58C473.68 725.58 473.857 725.653 474.004 725.799C474.15 725.946 474.223 726.123 474.223 726.33C474.223 726.537 474.15 726.714 474.004 726.86C473.857 727.006 473.681 727.08 473.473 727.08C473.266 727.08 473.089 727.006 472.943 726.86C472.796 726.714 472.723 726.537 472.723 726.33C472.723 726.123 472.796 725.946 472.943 725.799C473.089 725.653 473.266 725.58 473.473 725.58ZM476.473 725.58C476.681 725.58 476.857 725.653 477.004 725.799C477.15 725.946 477.224 726.123 477.224 726.33C477.224 726.537 477.15 726.714 477.004 726.86C476.857 727.006 476.681 727.08 476.474 727.08C476.266 727.08 476.09 727.006 475.943 726.86C475.797 726.714 475.723 726.537 475.723 726.33C475.723 726.123 475.797 725.946 475.943 725.799C476.09 725.653 476.266 725.58 476.473 725.58ZM479.474 725.58C479.681 725.58 479.858 725.653 480.004 725.799C480.15 725.946 480.224 726.123 480.224 726.33C480.224 726.537 480.15 726.714 480.004 726.86C479.858 727.006 479.681 727.08 479.474 727.08C479.267 727.08 479.09 727.006 478.943 726.86C478.797 726.714 478.724 726.537 478.724 726.33C478.724 726.123 478.797 725.946 478.943 725.799C479.09 725.653 479.266 725.58 479.474 725.58ZM482.474 725.58C482.681 725.58 482.858 725.653 483.004 725.799C483.151 725.946 483.224 726.123 483.224 726.33C483.224 726.537 483.151 726.714 483.004 726.86C482.858 727.006 482.681 727.08 482.474 727.08C482.267 727.08 482.09 727.006 481.943 726.86C481.797 726.714 481.724 726.537 481.724 726.33C481.724 726.123 481.797 725.946 481.943 725.799C482.09 725.653 482.267 725.58 482.474 725.58ZM485.474 725.58C485.681 725.58 485.858 725.653 486.004 725.799C486.151 725.946 486.224 726.123 486.224 726.33C486.224 726.537 486.151 726.714 486.004 726.86C485.858 727.006 485.681 727.08 485.474 727.08C485.267 727.08 485.09 727.006 484.944 726.86C484.797 726.714 484.724 726.537 484.724 726.33C484.724 726.123 484.797 725.946 484.944 725.799C485.09 725.653 485.267 725.58 485.474 725.58ZM488.474 725.58C488.681 725.58 488.858 725.653 489.004 725.799C489.151 725.946 489.224 726.123 489.224 726.33C489.224 726.537 489.151 726.714 489.004 726.86C488.858 727.006 488.681 727.08 488.474 727.08C488.267 727.08 488.09 727.006 487.944 726.86C487.797 726.714 487.724 726.537 487.724 726.33C487.724 726.123 487.797 725.946 487.944 725.799C488.09 725.653 488.267 725.58 488.474 725.58ZM491.474 725.58C491.681 725.58 491.858 725.653 492.005 725.799C492.151 725.946 492.224 726.123 492.224 726.33C492.224 726.537 492.151 726.714 492.005 726.86C491.858 727.006 491.681 727.08 491.474 727.08C491.267 727.08 491.09 727.006 490.944 726.86C490.797 726.714 490.724 726.537 490.724 726.33C490.724 726.123 490.797 725.946 490.944 725.799C491.09 725.653 491.267 725.58 491.474 725.58ZM494.474 725.58C494.681 725.58 494.858 725.653 495.005 725.799C495.151 725.946 495.224 726.123 495.224 726.33C495.224 726.537 495.151 726.714 495.005 726.86C494.858 727.006 494.682 727.08 494.474 727.08C494.267 727.08 494.09 727.006 493.944 726.86C493.798 726.714 493.724 726.537 493.724 726.33C493.724 726.123 493.798 725.946 493.944 725.799C494.09 725.653 494.267 725.58 494.474 725.58ZM497.474 725.58C497.682 725.58 497.858 725.653 498.005 725.799C498.151 725.946 498.225 726.123 498.225 726.33C498.225 726.537 498.151 726.714 498.005 726.86C497.858 727.006 497.682 727.08 497.475 727.08C497.267 727.08 497.091 727.006 496.944 726.86C496.798 726.714 496.724 726.537 496.724 726.33C496.724 726.123 496.798 725.946 496.944 725.799C497.091 725.653 497.267 725.58 497.474 725.58ZM500.475 725.58C500.682 725.58 500.859 725.653 501.005 725.799C501.152 725.946 501.225 726.123 501.225 726.33C501.225 726.537 501.152 726.714 501.005 726.86C500.859 727.006 500.682 727.08 500.475 727.08C500.268 727.08 500.091 727.006 499.944 726.86C499.798 726.714 499.725 726.537 499.725 726.33C499.725 726.123 499.798 725.946 499.944 725.799C500.091 725.653 500.267 725.58 500.475 725.58ZM503.475 725.58C503.682 725.58 503.859 725.653 504.005 725.799C504.152 725.946 504.225 726.123 504.225 726.33C504.225 726.537 504.152 726.714 504.005 726.86C503.859 727.006 503.682 727.08 503.475 727.08C503.268 727.08 503.091 727.006 502.944 726.86C502.798 726.714 502.725 726.537 502.725 726.33C502.725 726.123 502.798 725.946 502.944 725.799C503.091 725.653 503.268 725.58 503.475 725.58ZM506.475 725.58C506.682 725.58 506.859 725.653 507.005 725.799C507.152 725.946 507.225 726.123 507.225 726.33C507.225 726.537 507.152 726.714 507.005 726.86C506.859 727.006 506.682 727.08 506.475 727.08C506.268 727.08 506.091 727.006 505.945 726.86C505.798 726.714 505.725 726.537 505.725 726.33C505.725 726.123 505.798 725.946 505.945 725.799C506.091 725.653 506.268 725.58 506.475 725.58ZM509.475 725.58C509.682 725.58 509.859 725.653 510.006 725.799C510.152 725.946 510.225 726.123 510.225 726.33C510.225 726.537 510.152 726.714 510.006 726.86C509.859 727.006 509.682 727.08 509.475 727.08C509.268 727.08 509.091 727.006 508.945 726.86C508.798 726.714 508.725 726.537 508.725 726.33C508.725 726.123 508.798 725.946 508.945 725.799C509.091 725.653 509.268 725.58 509.475 725.58ZM512.475 725.58C512.682 725.58 512.859 725.653 513.006 725.799C513.152 725.946 513.225 726.123 513.225 726.33C513.225 726.537 513.152 726.714 513.006 726.86C512.859 727.006 512.682 727.08 512.475 727.08C512.268 727.08 512.091 727.006 511.945 726.86C511.798 726.714 511.725 726.537 511.725 726.33C511.725 726.123 511.798 725.946 511.945 725.799C512.091 725.653 512.268 725.58 512.475 725.58ZM515.475 725.58C515.682 725.58 515.859 725.653 516.006 725.799C516.152 725.946 516.226 726.123 516.226 726.33C516.226 726.537 516.152 726.714 516.006 726.86C515.859 727.006 515.683 727.08 515.476 727.08C515.268 727.08 515.091 727.006 514.945 726.86C514.799 726.714 514.725 726.537 514.725 726.33C514.725 726.123 514.799 725.946 514.945 725.799C515.091 725.653 515.268 725.58 515.475 725.58ZM518.476 725.58C518.683 725.58 518.86 725.653 519.006 725.799C519.152 725.946 519.226 726.123 519.226 726.33C519.226 726.537 519.152 726.714 519.006 726.86C518.86 727.006 518.683 727.08 518.476 727.08C518.269 727.08 518.092 727.006 517.945 726.86C517.799 726.714 517.726 726.537 517.726 726.33C517.726 726.123 517.799 725.946 517.945 725.799C518.092 725.653 518.268 725.58 518.476 725.58ZM521.476 725.58C521.683 725.58 521.86 725.653 522.006 725.799C522.153 725.946 522.226 726.123 522.226 726.33C522.226 726.537 522.153 726.714 522.006 726.86C521.86 727.006 521.683 727.08 521.476 727.08C521.269 727.08 521.092 727.006 520.945 726.86C520.799 726.714 520.726 726.537 520.726 726.33C520.726 726.123 520.799 725.946 520.945 725.799C521.092 725.653 521.269 725.58 521.476 725.58ZM524.476 725.58C524.683 725.58 524.86 725.653 525.006 725.799C525.153 725.946 525.226 726.123 525.226 726.33C525.226 726.537 525.153 726.714 525.006 726.86C524.86 727.006 524.683 727.08 524.476 727.08C524.269 727.08 524.092 727.006 523.945 726.86C523.799 726.714 523.726 726.537 523.726 726.33C523.726 726.123 523.799 725.946 523.945 725.799C524.092 725.653 524.269 725.58 524.476 725.58ZM527.476 725.58C527.683 725.58 527.86 725.653 528.006 725.799C528.153 725.946 528.226 726.123 528.226 726.33C528.226 726.537 528.153 726.714 528.006 726.86C527.86 727.006 527.683 727.08 527.476 727.08C527.269 727.08 527.092 727.006 526.946 726.86C526.799 726.714 526.726 726.537 526.726 726.33C526.726 726.123 526.799 725.946 526.946 725.799C527.092 725.653 527.269 725.58 527.476 725.58ZM530.476 725.58C530.683 725.58 530.86 725.653 531.007 725.799C531.153 725.946 531.226 726.123 531.226 726.33C531.226 726.537 531.153 726.714 531.007 726.86C530.86 727.006 530.683 727.08 530.476 727.08C530.269 727.08 530.092 727.006 529.946 726.86C529.799 726.714 529.726 726.537 529.726 726.33C529.726 726.123 529.799 725.946 529.946 725.799C530.092 725.653 530.269 725.58 530.476 725.58ZM533.476 725.58C533.683 725.58 533.86 725.653 534.007 725.799C534.153 725.946 534.226 726.123 534.226 726.33C534.226 726.537 534.153 726.714 534.007 726.86C533.86 727.006 533.684 727.08 533.476 727.08C533.269 727.08 533.092 727.006 532.946 726.86C532.799 726.714 532.726 726.537 532.726 726.33C532.726 726.123 532.799 725.946 532.946 725.799C533.092 725.653 533.269 725.58 533.476 725.58Z" fill="#060074"/>
</g>
</svg>
